# xmcd
#
# Track frame offsets: 
#        150
#        14857
#        31455
#        45972
#        62505
#        85510
#        97175
#        118922
#        135967
#        155970
#        167670
#        186575
#        205160
#        219840
#        230207
#        240802
#        252620
#        268990
#        280680
#        291802
#        304230
#        323025
#        335677
#        345082
#        357382
#
# Disc length: 4787 seconds
#
# Revision: 9
# Processed by: cddbd v1.5.2PL0 Copyright (c) Steve Scherf et al.
# Submitted via: ExactAudioCopy v0.95b3
#
DISCID=7b12b119
DTITLE=Roland Kirk - Domino
DYEAR=1962
DGENRE=Jazz
TTITLE0=Domino
TTITLE1=Meeting On Termini's Corner
TTITLE2=Time
TTITLE3=Lament
TTITLE4=A Stritch In Time
TTITLE5=3-In-1 Without The Oil
TTITLE6=Get Out Of Town
TTITLE7=Rolando
TTITLE8=I Believe In You
TTITLE9=E.D.
TTITLE10=Where Monk And Mingus Live/Let's Call This (Bonus Track)
TTITLE11=Domino - Alternate Version (Bonus Track)
TTITLE12=I Didn't Know What Time It Was (Bonus Track)
TTITLE13=I Didn't Know What Time It Was  (Bonus Track)(2)
TTITLE14=I Didn't Know What Time It Was  (Bonus Track)(3)
TTITLE15=Someone To Watch Over Me - Breakdown Take (Bonus Track)
TTITLE16=Someone To Watch Over Me (Bonus Track)
TTITLE17=Termini's Corner (Bonus Track)
TTITLE18=Termini's Corner  (Bonus Track)(2)
TTITLE19=Termini's Corner  (Bonus Track)(3)
TTITLE20=Termini's Corner - Breakdown Take and Intercuts (Bonus Track)
TTITLE21=When The Sun Comes Out (Bonus Track)
TTITLE22=When The Sun Comes Out  (Bonus Track)(2)
TTITLE23=When The Sun Comes Out  (Bonus Track)(3)
TTITLE24=Time Races With Emit (Bonus Track)
EXTD=YEAR: 1962
EXTT0=
EXTT1=
EXTT2=
EXTT3=
EXTT4=
EXTT5=
EXTT6=
EXTT7=
EXTT8=
EXTT9=
EXTT10=
EXTT11=
EXTT12=
EXTT13=
EXTT14=
EXTT15=
EXTT16=
EXTT17=
EXTT18=
EXTT19=
EXTT20=
EXTT21=
EXTT22=
EXTT23=
EXTT24=
PLAYORDER=
